<svg xmlns="http://www.w3.org/2000/svg" xmlns:xlink="http://www.w3.org/1999/xlink" width="182" height="182" viewBox="0 0 182 182">
  <defs>
    <filter id="Ellipse_1" x="0" y="0" width="182" height="182" filterUnits="userSpaceOnUse">
      <feOffset dy="3" input="SourceAlpha"/>
      <feGaussianBlur stdDeviation="10" result="blur"/>
      <feFlood flood-color="#00d3db" flood-opacity="0.416"/>
      <feComposite operator="in" in2="blur"/>
      <feComposite in="SourceGraphic"/>
    </filter>
  </defs>
  <g id="Group_1091" data-name="Group 1091" transform="translate(-1065 -3092)">
    <g transform="matrix(1, 0, 0, 1, 1065, 3092)" filter="url(#Ellipse_1)">
      <circle id="Ellipse_1-2" data-name="Ellipse 1" cx="61" cy="61" r="61" transform="translate(30 27)" fill="#00d3db"/>
    </g>
    <g id="noun_growth_1563625" transform="translate(1122.03 3148.008)">
      <path id="Path_27" data-name="Path 27" d="M11,66a5,5,0,0,0-5,5V81a5,5,0,0,0,5,5h5a5,5,0,0,0,5-5V71a5,5,0,0,0-5-5Zm0,15V71h5V81Z" transform="translate(-0.011 -24.006)" fill="#fff"/>
      <path id="Path_28" data-name="Path 28" d="M43,50a5,5,0,0,0-5,5V75a5,5,0,0,0,5,5h5a5,5,0,0,0,5-5V55a5,5,0,0,0-5-5Zm0,25V55h5V75Z" transform="translate(-12.013 -18.005)" fill="#fff"/>
      <path id="Path_29" data-name="Path 29" d="M75,75.5h5a5,5,0,0,0,5-5V43a5,5,0,0,0-5-5H75a5,5,0,0,0-5,5V70.5A5,5,0,0,0,75,75.5ZM75,43h5V70.5H75Z" transform="translate(-24.015 -13.505)" fill="#fff"/>
      <path id="Path_30" data-name="Path 30" d="M48.56,16.371a2.5,2.5,0,0,0,1.8,3.05,2.556,2.556,0,0,0,.625.075,2.5,2.5,0,0,0,2.425-1.875l2.5-10h0a2.432,2.432,0,0,0,.075-1.006,2.5,2.5,0,0,0-.331-.912h0a1.637,1.637,0,0,0-.175-.187A2.5,2.5,0,0,0,55,5a2.2,2.2,0,0,0-.587-.275,1.469,1.469,0,0,0-.3-.15l-10-2.5a2.5,2.5,0,0,0-1.25,4.85l4.212,1.056L7.163,32.351a2.5,2.5,0,1,0,2.612,4.262L49.56,12.3Z" transform="translate(0 0)" fill="#fff"/>
    </g>
  </g>
</svg>
