<svg xmlns="http://www.w3.org/2000/svg" xmlns:xlink="http://www.w3.org/1999/xlink" width="182" height="182" viewBox="0 0 182 182">
  <defs>
    <filter id="Ellipse_1" x="0" y="0" width="182" height="182" filterUnits="userSpaceOnUse">
      <feOffset dy="3" input="SourceAlpha"/>
      <feGaussianBlur stdDeviation="10" result="blur"/>
      <feFlood flood-color="#ff4186" flood-opacity="0.42"/>
      <feComposite operator="in" in2="blur"/>
      <feComposite in="SourceGraphic"/>
    </filter>
  </defs>
  <g id="Group_1085" data-name="Group 1085" transform="translate(-1065 -2778)">
    <g transform="matrix(1, 0, 0, 1, 1065, 2778)" filter="url(#Ellipse_1)">
      <circle id="Ellipse_1-2" data-name="Ellipse 1" cx="61" cy="61" r="61" transform="translate(30 27)" fill="#ff4186"/>
    </g>
    <path id="Path_163" data-name="Path 163" d="M2.571,61.114A2.5,2.5,0,0,0,4.5,62.04a2.6,2.6,0,0,0,.625-.088l26.886-7.334L58.9,61.94a2.6,2.6,0,0,0,.625.1,2.5,2.5,0,0,0,2.238-3.62L34.253,3.4a2.039,2.039,0,0,0-.181-.225,2.082,2.082,0,0,0-.713-.713,2.038,2.038,0,0,0-.225-.181.247.247,0,0,1-.169-.044,2.626,2.626,0,0,0-.494-.138,1.876,1.876,0,0,0-.913,0,2.764,2.764,0,0,0-.494.138.247.247,0,0,0-.169.044,2.039,2.039,0,0,0-.225.181,2.082,2.082,0,0,0-.713.713,2.038,2.038,0,0,0-.181.225L2.264,58.42a2.5,2.5,0,0,0,.306,2.695ZM32.014,10.1,54.786,55.643,34.515,50.11V32.027a2.5,2.5,0,1,0-5,0V50.11L9.242,55.643Z" transform="translate(1123.996 2833.96)" fill="#fff"/>
  </g>
</svg>
