<svg xmlns="http://www.w3.org/2000/svg" xmlns:xlink="http://www.w3.org/1999/xlink" width="182" height="182" viewBox="0 0 182 182">
  <defs>
    <filter id="Ellipse_1" x="0" y="0" width="182" height="182" filterUnits="userSpaceOnUse">
      <feOffset dy="3" input="SourceAlpha"/>
      <feGaussianBlur stdDeviation="10" result="blur"/>
      <feFlood flood-color="#2e3234" flood-opacity="0.42"/>
      <feComposite operator="in" in2="blur"/>
      <feComposite in="SourceGraphic"/>
    </filter>
  </defs>
  <g id="Group_1084" data-name="Group 1084" transform="translate(-629 -2778)">
    <g transform="matrix(1, 0, 0, 1, 629, 2778)" filter="url(#Ellipse_1)">
      <circle id="Ellipse_1-2" data-name="Ellipse 1" cx="61" cy="61" r="61" transform="translate(30 27)" fill="#484857"/>
    </g>
    <path id="Path_31" data-name="Path 31" d="M46.5,2h-20A12.537,12.537,0,0,0,14,14.5v25a22.5,22.5,0,1,0,45,0v-25A12.537,12.537,0,0,0,46.5,2ZM38.875,15ZM36.5,19.5A2.507,2.507,0,0,1,39,22v7.5a2.5,2.5,0,0,1-5,0V22A2.507,2.507,0,0,1,36.5,19.5Zm-2.375-4.625ZM19,14.5A7.522,7.522,0,0,1,26.5,7H34v8a7.4,7.4,0,0,0-5,7v2.5H19Zm35,25a17.5,17.5,0,1,1-35,0v-10H29a7.5,7.5,0,1,0,15,0H54Zm0-15H44V22a7.4,7.4,0,0,0-5-7V7h7.5A7.522,7.522,0,0,1,54,14.5Z" transform="translate(684 2834)" fill="#fff"/>
  </g>
</svg>
