<svg xmlns="http://www.w3.org/2000/svg" xmlns:xlink="http://www.w3.org/1999/xlink" width="182" height="182" viewBox="0 0 182 182">
  <defs>
    <filter id="Ellipse_1" x="0" y="0" width="182" height="182" filterUnits="userSpaceOnUse">
      <feOffset dy="3" input="SourceAlpha"/>
      <feGaussianBlur stdDeviation="10" result="blur"/>
      <feFlood flood-color="#2e3234" flood-opacity="0.42"/>
      <feComposite operator="in" in2="blur"/>
      <feComposite in="SourceGraphic"/>
    </filter>
  </defs>
  <g id="Group_1090" data-name="Group 1090" transform="translate(-629 -3092)">
    <g transform="matrix(1, 0, 0, 1, 629, 3092)" filter="url(#Ellipse_1)">
      <circle id="Ellipse_1-2" data-name="Ellipse 1" cx="61" cy="61" r="61" transform="translate(30 27)" fill="#484857"/>
    </g>
    <path id="Path_25" data-name="Path 25" d="M6,22V59.5A2.5,2.5,0,0,0,8.5,62H21a2.5,2.5,0,0,0,2.5-2.5V57H48.168a7.5,7.5,0,0,0,6.43-3.642,44.887,44.887,0,0,0,6.4-23.1V29.5A7.5,7.5,0,0,0,53.5,22l-8.487-.1c3.356-8.125,2.862-14.725-1.381-18.518A5.725,5.725,0,0,0,39.787,2a6.081,6.081,0,0,0-6.062,5.912C33.581,11.768,32.093,17.355,26,21.93l-2.5,1.55V22A2.5,2.5,0,0,0,21,19.5H8.5A2.5,2.5,0,0,0,6,22Zm22.825,4.056c8.256-6.187,9.744-13.906,9.9-17.956A1.087,1.087,0,0,1,39.787,7a.956.956,0,0,1,.506.106c3.444,3.069,1.537,9.375.1,12.894a5.069,5.069,0,0,0,4.694,7H53.5A2.5,2.5,0,0,1,56,29.5v.756A39.919,39.919,0,0,1,50.315,50.78,2.5,2.5,0,0,1,48.168,52H23.5V29.349ZM11,24.5h7.5V57H11Z" transform="translate(687 3148.002)" fill="#fff"/>
  </g>
</svg>
