<svg xmlns="http://www.w3.org/2000/svg" xmlns:xlink="http://www.w3.org/1999/xlink" width="182" height="182" viewBox="0 0 182 182">
  <defs>
    <filter id="Ellipse_1" x="0" y="0" width="182" height="182" filterUnits="userSpaceOnUse">
      <feOffset dy="3" input="SourceAlpha"/>
      <feGaussianBlur stdDeviation="10" result="blur"/>
      <feFlood flood-color="#ff4186" flood-opacity="0.42"/>
      <feComposite operator="in" in2="blur"/>
      <feComposite in="SourceGraphic"/>
    </filter>
  </defs>
  <g id="Group_1089" data-name="Group 1089" transform="translate(-193 -3092)">
    <g transform="matrix(1, 0, 0, 1, 193, 3092)" filter="url(#Ellipse_1)">
      <circle id="Ellipse_1-2" data-name="Ellipse 1" cx="61" cy="61" r="61" transform="translate(30 27)" fill="#ff4186"/>
    </g>
    <g id="Group_400" data-name="Group 400" transform="translate(-722 -97)">
      <path id="Path_158" data-name="Path 158" d="M6,57.815a2.727,2.727,0,0,0,2.727,2.727h2.727A35.494,35.494,0,0,0,46.908,25.089V15.312l3.525,3.525a2.729,2.729,0,0,0,3.859-3.859L46.11,6.8a2.727,2.727,0,0,0-3.859,0l-8.182,8.182a2.729,2.729,0,0,0,3.859,3.859l3.525-3.525v9.777a30.033,30.033,0,0,1-30,30H8.727A2.727,2.727,0,0,0,6,57.815Z" transform="translate(970 3241.003)" fill="#fff"/>
      <path id="Path_159" data-name="Path 159" d="M10.8,48.292a2.727,2.727,0,0,0,3.859,0L19.544,43.4l4.888,4.888a2.729,2.729,0,1,0,3.859-3.859L23.4,39.544l4.888-4.888A2.729,2.729,0,0,0,24.433,30.8l-4.888,4.888L14.656,30.8A2.729,2.729,0,0,0,10.8,34.656l4.888,4.888L10.8,44.433a2.727,2.727,0,0,0,0,3.859Z" transform="translate(968.729 3233.366)" fill="#fff"/>
      <path id="Path_160" data-name="Path 160" d="M83.817,72.909A10.909,10.909,0,1,0,72.909,83.817,10.909,10.909,0,0,0,83.817,72.909ZM72.909,78.363a5.454,5.454,0,1,1,5.454-5.454A5.454,5.454,0,0,1,72.909,78.363Z" transform="translate(952.18 3223.183)" fill="#fff"/>
    </g>
  </g>
</svg>
