<svg xmlns="http://www.w3.org/2000/svg" xmlns:xlink="http://www.w3.org/1999/xlink" width="182" height="182" viewBox="0 0 182 182">
  <defs>
    <filter id="Ellipse_1" x="0" y="0" width="182" height="182" filterUnits="userSpaceOnUse">
      <feOffset dy="3" input="SourceAlpha"/>
      <feGaussianBlur stdDeviation="10" result="blur"/>
      <feFlood flood-color="#00d3db" flood-opacity="0.416"/>
      <feComposite operator="in" in2="blur"/>
      <feComposite in="SourceGraphic"/>
    </filter>
  </defs>
  <g id="Group_1083" data-name="Group 1083" transform="translate(-193 -2778)">
    <g id="Group_676" data-name="Group 676" transform="translate(0 244)">
      <g transform="matrix(1, 0, 0, 1, 193, 2534)" filter="url(#Ellipse_1)">
        <circle id="Ellipse_1-2" data-name="Ellipse 1" cx="61" cy="61" r="61" transform="translate(30 27)" fill="#00d3db"/>
      </g>
    </g>
    <g id="noun_magnifier_1560943" transform="translate(252 2834)">
      <path id="Path_171" data-name="Path 171" d="M44.921,33.877A22.6,22.6,0,1,0,33.877,44.921L48.683,59.715A7.8,7.8,0,0,0,59.715,48.683ZM7,24.5A17.5,17.5,0,1,1,24.5,42,17.5,17.5,0,0,1,7,24.5ZM54.2,57a2.813,2.813,0,0,1-1.988-.819L38.283,42.246a22.432,22.432,0,0,0,3.963-3.963L56.184,52.215A2.838,2.838,0,0,1,57,54.2,2.806,2.806,0,0,1,54.2,57Z" fill="#fff"/>
    </g>
  </g>
</svg>
