<?xml version="1.0" encoding="UTF-8" standalone="no"?>
<svg version="1.1" xmlns="http://www.w3.org/2000/svg" xmlns:xlink="http://www.w3.org/1999/xlink" width="197.052" height="197.052">
	<path id="dp_path001" transform="matrix(1,0,0,1,-0.953333,-1.096)" fill="black" fill-rule="evenodd" stroke="none" stroke-width="0" d="M 155.257,80.2107 C 155.137,80.2933 154.943,80.508 154.425,81.0773 C 151.884,83.8707 150.275,87.5413 149.051,91.0853 C 148.633,92.3053 148.129,93.4973 147.515,94.6307 C 147.276,95.0707 147.033,95.8 146.979,96.252 C 146.877,97.0707 146.877,97.0707 146.603,97.82 C 145.659,100.396 145.259,103.279 144.905,105.989 C 144.177,111.676 143.901,117.676 144.695,123.369 C 145.007,125.573 145.791,128.245 147.405,129.86 C 147.515,130.071 147.62,130.277 147.712,130.497 C 148.528,132.424 149.945,131.552 150.537,130.185 C 151.839,127.181 151.517,123.391 151.339,120.205 C 151.147,116.76 151.256,113.364 151.637,109.94 C 151.756,108.901 151.916,108 151.999,107.936 C 152.081,107.869 152.215,107.952 152.297,108.117 C 152.971,109.468 154.591,110.653 155.621,111.755 C 157.951,114.256 160.359,116.692 162.737,119.148 L 163.92,120.425 C 165.095,121.687 166.264,122.948 167.437,124.212 C 168.543,125.317 169.648,126.423 170.752,127.528 L 171.207,127.892 C 171.665,128.257 171.665,128.257 172.027,128.532 C 172.389,128.803 172.389,128.803 172.711,129.048 C 173.513,129.672 174.563,130.287 175.557,130.516 C 175.82,130.577 176.277,130.759 176.58,130.917 C 177.892,131.616 179.951,131.759 181.368,131.339 C 182.747,130.931 183.591,128.94 182.577,127.761 C 182.28,127.411 182.22,127.319 182.193,127.163 C 181.973,125.907 179.323,126.415 178.657,126.589 C 177.309,126.945 177.309,126.945 177.076,126.949 C 176.195,126.959 174.869,125.088 174.375,124.595 C 172.545,122.764 170.803,120.852 169.019,118.967 C 166.755,116.565 164.448,114.201 162.156,111.828 L 160.981,110.561 C 159.808,109.293 159.808,109.293 158.795,108.193 C 157.708,107.009 156.603,105.847 155.497,104.687 L 156.479,104.432 C 157.469,104.175 158.345,103.728 159.263,103.283 C 159.647,103.095 160.137,102.891 160.344,102.836 C 160.715,102.737 160.715,102.737 161.257,102.473 C 161.551,102.327 162.004,102.157 162.265,102.097 C 162.527,102.04 163.017,101.833 163.356,101.641 C 164.467,101.024 165.636,100.495 166.809,100.015 C 167.272,99.8227 167.272,99.8227 167.909,99.4573 C 168.547,99.0933 168.547,99.0933 168.923,98.9027 C 169.419,98.648 169.776,98.228 170.165,97.836 L 170.441,97.6533 C 170.716,97.472 170.716,97.472 170.932,97.4053 C 171.927,97.0933 173.155,95.2653 173.711,94.312 C 174.848,92.3627 175.288,90.3053 175.288,88.0533 C 175.288,86.216 174.961,83.2853 173.553,81.8773 C 173.119,81.4413 173.119,81.4413 173.036,81.196 C 172.656,80.0453 170.436,79.096 169.46,78.6093 C 167.199,77.4813 164.452,77.4187 161.995,77.4187 C 161.6,77.6053 160.784,77.848 160.169,77.9533 C 158.913,78.1693 156.997,78.768 156.071,79.692 C 155.636,80.132 155.636,80.132 155.443,80.148 C 155.372,80.1547 155.328,80.1587 155.257,80.2107 Z M 119.197,76.14 C 116.569,77.484 115.804,80.3893 115.529,83.1387 C 115.079,87.636 114.828,92.3093 114.828,96.836 C 114.828,97.472 114.828,97.472 114.736,99.112 C 114.272,107.448 114.932,115.768 115.817,124.051 C 116.263,128.22 116.263,128.22 116.263,128.793 C 116.259,130.479 118.293,131.192 119.545,131.756 C 120.412,132.148 122.929,132.527 123.121,131.147 C 123.497,128.493 122.736,125.376 122.476,122.773 C 121.925,117.327 121.925,117.327 121.88,115.976 C 121.847,114.931 121.833,114.623 122.072,114.699 C 122.476,114.832 122.787,115.233 123.112,115.488 C 123.548,115.832 123.548,115.832 123.833,116.024 C 129.321,119.747 133.847,125.14 138.124,130.141 C 139.592,131.857 142.012,133.093 144.333,132.8 C 145.704,132.625 144.92,130.669 144.415,130.061 C 139.536,124.161 134.213,118.785 128.211,114.029 C 127.968,113.841 127.684,113.635 127.575,113.573 C 127.372,113.465 127.372,113.465 127.015,113.201 C 125.768,112.271 124.387,111.548 123.025,110.8 C 121.783,110.115 122.627,109.555 123.121,108.475 C 123.456,107.739 123.897,107.145 124.456,106.579 C 124.796,105.939 125.217,105.331 125.653,104.751 C 125.795,104.553 125.951,104.285 125.997,104.148 C 126.24,103.416 127.079,102.716 127.565,102.107 C 127.917,101.661 127.917,101.661 128.203,101.288 C 129.344,99.772 130.613,98.3293 131.861,96.8987 C 133.081,95.5013 134.26,94.0667 135.415,92.6187 C 135.768,92.172 135.768,92.172 135.96,91.888 C 136.153,91.608 136.153,91.608 136.413,91.2507 C 136.676,90.8947 136.676,90.8947 136.859,90.624 C 137.043,90.3507 137.043,90.3507 137.235,90.076 C 137.34,89.924 137.501,89.5947 137.597,89.3467 C 137.772,88.892 137.772,88.892 137.96,88.484 C 138.799,86.636 139.229,84.136 138.891,82.132 C 138.491,79.772 135.759,82.496 134.672,83.0627 C 132.499,84.2027 130.769,86.576 129.321,88.508 C 127.129,91.4333 124.708,94.204 122.309,96.9627 C 121.807,97.5453 121.807,97.5453 121.779,97.5453 C 121.747,97.5453 121.747,97.5453 121.747,96.6693 C 121.747,92.8827 121.976,88.9293 122.384,85.1573 C 122.663,82.5653 121.953,80.0173 120.916,77.672 C 120.572,76.8947 120.119,76.14 119.197,76.14 Z M 87.8707,108.2 C 88.884,108.799 89.852,109.073 90.9893,109.395 C 91.888,109.649 92.9467,110.057 93.336,110.296 C 94.048,110.733 94.048,110.733 95.6107,111.389 C 96.5373,111.777 97.3493,112.217 98.0547,112.921 C 98.312,113.057 98.5547,113.208 98.788,113.383 C 98.9853,113.529 99.2427,113.679 99.3573,113.715 C 100.485,114.061 101.613,115.973 102.356,116.941 C 103.777,118.788 104.533,121.519 103.451,123.684 C 103.304,123.977 103.18,124.301 103.167,124.413 C 103.153,124.615 103.153,124.615 102.713,125.051 C 102.277,125.487 102.277,125.487 102.251,125.665 C 102.089,126.697 99.728,127.52 98.9253,127.883 C 95.7253,129.339 91.6907,128.536 88.508,127.452 C 88.3613,126.465 88.256,125.507 88.2467,124.507 C 88.2333,123.301 88.2333,123.301 88.064,121.68 C 87.6187,117.533 87.5093,113.364 87.5093,109.193 C 87.5093,108.647 87.5867,108.2 87.692,108.2 C 87.692,108.2 87.8707,108.2 87.8707,108.2 Z M 58.464,47.104 C 58.3893,47.0333 58.3253,46.9947 58.2787,46.9947 C 58.1867,46.9947 58.0027,46.9947 58.0027,46.9947 C 57.3333,47.964 56.8933,49.0813 56.5493,50.2027 C 54.124,58.0893 55.6373,66.5173 55.6373,74.6107 C 55.6373,75.4293 55.6373,75.4293 55.7293,77.0707 C 55.82,78.7107 55.82,78.7107 55.82,79.0747 C 55.82,79.4373 55.82,79.4373 55.9213,80.336 C 56.0227,81.2307 56.0227,81.2307 55.972,81.4147 C 55.944,81.5147 55.5693,81.6853 55.1333,81.7947 C 54.1693,82.0333 53.3173,82.4987 52.4507,82.9733 C 51.648,83.4093 51.648,83.4093 51.1027,83.512 C 50.5573,83.6093 50.5573,83.6093 49.92,83.964 C 49.2827,84.32 49.2827,84.32 48.76,84.4227 C 46.6827,84.8267 44.5,86.2507 42.624,87.152 C 40.524,88.1653 40.524,88.1653 39.6987,88.62 C 38.8827,89.0733 38.8827,89.0733 38.512,89.2667 C 38.2547,89.3973 37.9987,89.5733 37.696,89.812 C 37.36,90.0893 37.196,90.1907 36.9707,90.2667 C 36.4893,90.432 36.16,90.888 35.8067,91.2427 C 35.5453,91.3787 35.3053,91.5293 35.0693,91.7067 C 34.8467,91.8693 34.636,91.9773 34.512,91.9907 C 33.844,92.0507 32.7,93.424 32.228,93.86 C 30.5053,95.4533 33.088,94.956 33.984,94.8027 C 38.9933,93.9427 43.8893,91.972 48.7,90.3693 C 50.8,89.6653 52.776,89.044 53.088,88.984 C 53.94,88.8187 54.7253,88.3373 55.5267,88.008 C 56.7333,87.512 56.3707,88.6493 56.376,89.6213 C 56.38,90.3347 56.4987,91.5227 56.6413,92.2613 C 56.7787,93.004 56.8987,94.188 56.9027,94.896 C 56.912,96.18 56.912,96.18 57.0867,97.628 C 57.2973,99.3867 57.2787,101.168 57.2787,102.935 C 57.2787,103.301 57.2787,103.301 57.3667,104.941 C 57.4573,106.579 57.4573,106.579 57.4573,108.764 C 57.4573,110.952 57.4573,110.952 57.5493,112.589 C 57.6413,114.231 57.6413,114.231 57.6413,117.511 C 57.6413,120.788 57.6413,120.788 57.7333,122.429 C 57.824,124.067 57.824,124.067 57.824,124.521 C 57.824,124.977 57.824,124.977 57.916,126.436 C 58.0027,127.892 58.0027,127.892 58.0947,129.805 C 58.1867,131.717 58.1867,131.717 58.2787,133.339 C 58.4387,136.157 59.0573,138.792 59.544,141.537 C 59.924,143.684 62.2907,143.908 64.0333,144.459 C 66.9253,145.376 66.3347,142.197 66.0093,140.565 C 65.5413,138.244 65.2893,135.781 65.2893,133.412 C 65.2893,131.504 65.1013,129.589 64.936,127.691 C 64.752,125.62 64.7427,123.556 64.7427,121.48 C 64.7427,120.751 64.7427,120.751 64.652,119.113 C 64.5653,117.473 64.5653,117.473 64.5653,113.828 C 64.5653,110.185 64.5653,110.185 64.468,108.548 C 64.376,106.907 64.376,106.907 64.376,105.267 C 64.376,103.143 64.248,101.024 64.024,98.912 C 63.8533,97.2907 63.8533,97.2907 63.84,96.096 C 63.8307,94.3893 63.6933,92.6907 63.4773,90.9973 C 63.304,89.64 63.304,89.64 63.2947,88.436 C 63.2853,87.2347 63.2853,87.2347 63.1707,86.2093 C 63.0053,84.7787 64.024,84.2027 65.472,84.1547 C 66.8253,84.1133 68.2507,83.2853 69.48,82.7907 C 71.4653,81.988 71.4653,81.988 72.0293,81.8773 C 72.336,81.82 72.9507,81.616 73.396,81.4253 C 74.1933,81.0773 74.1933,81.0773 75.7613,80.696 C 77.6373,80.2373 79.4853,79.6827 81.3373,79.128 C 83.4547,78.4907 85.6933,78.3027 87.7333,77.4213 C 90.4707,76.232 90.384,75.7747 92.0667,75.548 C 92.8373,75.4453 94.1987,75.7867 94.6067,75.7773 C 95.02,75.768 95.9227,75.596 96.6107,75.392 C 100.085,74.376 103.781,73.876 107.353,73.3533 C 110.833,72.844 110.833,72.844 112.751,72.4867 C 117.633,71.5827 122.567,71.276 127.501,70.7667 C 129.765,70.5347 132.035,70.2733 134.236,69.6747 C 134.787,69.5253 135.447,69.296 135.704,69.1653 C 137.052,68.48 134.681,67.7947 134.245,67.6547 C 129.064,66.0213 123.072,66.224 117.72,66.76 C 110.151,67.5173 102.576,68.7027 95.156,70.3947 C 92.764,70.9387 90.3427,71.3947 89.7827,71.404 C 87.4947,71.4453 85.1013,72.4107 82.9053,72.9587 C 80.32,73.6013 80.32,73.6013 79.7147,73.78 C 79.1133,73.9547 79.1133,73.9547 77.6547,74.2387 C 76.8533,74.392 75.7573,74.716 75.216,74.956 C 72.5067,76.16 69.3973,76.8027 66.5827,77.6827 C 62.7587,78.8733 62.7587,78.8733 62.7493,78.9187 C 62.74,78.9653 62.74,78.9653 62.74,77.4533 C 62.74,75.94 62.74,75.94 62.648,74.3027 C 62.5613,72.6627 62.5613,72.6627 62.5613,71.6627 C 62.5613,70.6587 62.5613,70.6587 62.4653,69.0173 C 62.372,67.3773 62.372,67.3773 62.372,66.4667 C 62.372,65.5587 62.372,65.5587 62.2853,63.9187 C 62.1933,62.2787 62.1933,62.2787 62.1933,61.2787 C 62.1933,56.9267 60.9653,51.776 59.008,47.8973 C 58.8333,47.5547 58.6253,47.2573 58.464,47.104 Z M 161.3,84.1373 C 161.953,83.64 162.747,83.2253 163.26,82.9733 C 164.512,82.3613 165.879,81.9693 167.272,81.9693 C 168.405,83.6253 168.661,86.2787 168.18,88.1813 C 166.621,94.424 160.165,96.0587 155.063,98.5453 C 154.691,98.728 154.311,98.8413 153.92,98.96 L 154.305,98.2173 C 154.691,97.472 154.691,97.472 154.787,96.9093 C 154.939,96.0707 155.245,95.3 155.621,94.5387 C 155.809,94.1467 156.016,93.6147 156.071,93.3533 C 156.131,93.096 156.341,92.6027 156.529,92.2613 C 157.047,91.3307 157.437,90.3347 157.877,89.3653 C 158.332,88.3653 158.332,88.3653 158.415,88.2093 C 158.496,88.0533 158.496,88.0533 158.708,87.5533 C 158.913,87.0533 158.913,87.0533 159.349,86.6133 C 159.707,86.2573 160.065,85.9 160.225,85.4067 C 160.367,84.9587 160.791,84.5227 161.3,84.1373 Z M 97.344,81.4253 C 101.36,83.7493 103.217,90.3627 100.608,94.376 C 100.403,94.6987 100.215,95.0707 100.155,95.288 C 100.055,95.6507 100.055,95.6507 99.6187,96.0867 C 99.1773,96.5267 99.1773,96.5267 99.1187,96.74 C 98.82,97.7013 97.156,98.8107 96.3307,99.4667 C 95.8813,99.8227 95.8813,99.8227 95.5653,100.071 C 95.3853,100.212 95.1027,100.377 94.9187,100.444 C 94.6613,100.54 94.4973,100.648 94.1573,100.925 C 93.3,101.62 92.108,101.992 91.1307,102.483 C 90.0987,102.999 89.072,103.524 88.0547,104.069 C 88.0547,100.731 89.256,97.3933 89.976,94.156 C 90.132,93.456 90.54,92.236 90.8747,91.4427 C 91.356,90.3347 91.728,89.216 92.0707,88.0627 C 92.264,87.416 92.264,87.416 92.608,86.888 C 93.1213,86.104 93.452,85.2093 93.7907,84.3387 C 93.9507,83.928 94.2773,83.3933 94.52,83.1547 C 94.9547,82.7173 94.9547,82.7173 94.9867,82.5333 C 95.1387,81.648 96.652,81.4253 97.344,81.4253 Z M 94.048,76.9267 C 93.3893,76.8813 92.7267,76.8693 92.0613,76.8693 C 91.4293,77.0867 91.4293,77.0867 90.916,77.344 C 87.8387,78.8693 86.1147,82.476 85.0827,85.6493 C 85,85.8867 85,85.8867 84.6973,85.2733 C 84.248,84.3773 83.74,84.524 83.1067,85.1867 C 81.484,86.8813 80.636,89.7547 80.2093,92.0227 C 79.32,96.7653 80.0853,102.06 80.3147,106.853 C 80.4013,108.615 80.4747,110.376 80.3147,112.137 C 80.264,112.688 80.264,113.956 80.3147,114.96 C 80.4067,116.781 80.4067,116.781 80.416,118.056 C 80.424,119.329 80.424,119.329 80.6133,120.448 C 80.8053,121.567 80.8053,121.567 80.9613,123.127 C 81.0667,124.193 81.1013,124.531 81.112,124.624 L 81.108,124.619 C 81.068,124.584 80.8587,124.543 79.7507,124.321 C 78.384,124.051 78.384,124.051 77.6733,124.051 C 75.748,124.051 76.872,125.725 77.6133,126.408 C 78.5213,127.241 79.4347,127.857 80.5493,128.395 C 81.6307,128.92 81.6307,128.92 81.6533,129.064 C 81.6813,129.211 81.6813,129.211 81.6813,129.736 C 81.6813,130.956 82.0387,132.807 82.992,133.653 C 84.1013,134.641 86.5187,135.521 88.0267,135.196 C 89.7467,134.829 89.1,132.74 88.8387,131.488 C 89.764,131.699 90.6867,131.908 91.6027,132.157 C 96.308,133.416 101.164,133.613 105.648,131.507 C 108.013,130.395 110.027,128.184 110.636,125.592 C 111.328,122.601 110.719,118.845 108.468,116.6 C 108.427,116.341 108.243,116.141 108.087,115.944 C 106.537,113.984 104.607,112.316 102.612,110.835 C 100.659,109.376 98.1693,107.929 95.8813,107.248 C 95.588,107.161 97.0373,106.569 97.2573,106.471 C 97.8853,106.197 97.8853,106.197 98.7107,105.741 C 99.5267,105.285 99.5267,105.285 99.8987,105.095 C 100.397,104.84 100.755,104.419 101.149,104.031 C 101.411,103.895 101.649,103.744 101.888,103.565 C 102.241,103.301 102.241,103.301 102.443,103.2 C 105.24,101.801 107.771,97.6693 108.265,94.72 C 108.852,91.2707 108.903,86.0627 106.175,83.336 C 105.74,82.9 105.74,82.9 105.667,82.6773 C 105.353,81.6827 103.667,80.708 102.832,80.068 C 102.264,79.6253 101.516,79.1667 100.82,78.9747 C 100.581,78.908 100.397,78.8133 100.283,78.6987 C 99.5027,77.8893 97.628,77.5427 96.5693,77.2907 C 95.7333,77.0907 94.8933,76.9827 94.048,76.9267 Z M 25.3147,47.8707 C 25.2733,47.8067 25.236,47.7693 25.2053,47.7653 C 24.9813,47.724 24.9813,47.724 24.8293,47.724 L 24.6787,47.724 C 17.876,73.3027 24.3613,100.469 25.5907,126.255 C 25.852,131.787 26.2627,137.301 26.6,142.831 C 26.6987,144.468 26.6987,144.468 27.0653,146.66 C 27.432,148.851 27.432,148.851 27.6387,149.38 C 28.26,150.976 30.8467,152.104 32.464,152.104 C 35.4627,152.104 34.1173,148.488 33.8747,146.436 C 33.0507,139.509 32.7227,132.543 32.388,125.576 C 32.0093,117.699 31.3493,109.924 30.5053,102.081 C 29.8107,95.596 29.216,89.12 28.868,82.6067 C 28.6867,79.2213 28.6867,79.2213 28.6867,77.9427 C 28.6867,76.6693 28.6867,76.6693 28.5947,75.0293 C 28.5053,73.392 28.5053,73.392 28.5053,70.292 C 28.5053,63.0867 27.3427,55.952 25.6987,48.9573 C 25.588,48.4813 25.4347,48.06 25.3147,47.8707 Z M 99.3533,1.096 C 153.699,1.096 197.753,45.1507 197.753,99.496 C 197.753,153.841 153.699,197.896 99.3533,197.896 C 45.008,197.896 0.953333,153.841 0.953333,99.496 C 0.953333,45.1507 45.008,1.096 99.3533,1.096 Z "/>
</svg>