<svg xmlns="http://www.w3.org/2000/svg" width="149.719" height="30" viewBox="0 0 149.719 30">
  <g id="logo-12" transform="translate(-21.987 -36.569)">
    <path id="Path_60" data-name="Path 60" d="M43.251,61.4,23.176,47.552c-2.034-1.4-1.343-4.325,1.194-5.012l21.335-5.791a3.021,3.021,0,0,1,4.046,2.788L48.487,59.174C48.337,61.5,45.285,62.8,43.251,61.4Z" transform="translate(0 0)" fill="rgba(98,93,113,0.4)"/>
    <path id="Path_61" data-name="Path 61" d="M36.595,64.772,24.769,41.644a3.226,3.226,0,0,1,3.365-4.656L50.05,40.371a3.226,3.226,0,0,1,2.38,4.657l-10.1,19.745a3.226,3.226,0,0,1-5.739,0Z" transform="translate(0.289 0.045)" fill="rgba(98,93,113,0.4)" style="mix-blend-mode: multiply;isolation: isolate"/>
    <path id="Path_62" data-name="Path 62" d="M49.34,40.1,38.414,38.411,25,42.053l5.354,10.475L42.892,61.18a3.231,3.231,0,0,0,.9.429L48.556,52.3Z" transform="translate(0.358 0.219)" fill="rgba(98,93,113,0.4)" style="mix-blend-mode: multiply;isolation: isolate"/>
    <path id="Path_63" data-name="Path 63" d="M96.209,42.552a2.053,2.053,0,1,1,2.053,2.053,2.075,2.075,0,0,1-2.053-2.053Zm.342,3.057h3.423V57.016H96.551Z" transform="translate(8.829 0.467)" fill="rgba(98,93,113,0.4)"/>
    <path id="Path_64" data-name="Path 64" d="M114.089,50.8a5.728,5.728,0,0,1-5.452,6.023,4.285,4.285,0,0,1-3.4-1.392V61.07h-3.422V45.1h3.422v1.072a4.284,4.284,0,0,1,3.4-1.391,5.727,5.727,0,0,1,5.452,6.022Zm-3.422,0a2.716,2.716,0,1,0-2.715,2.784,2.6,2.6,0,0,0,2.715-2.784Z" transform="translate(9.496 0.976)" fill="rgba(98,93,113,0.4)"/>
    <path id="Path_65" data-name="Path 65" d="M123.249,53.083c0,2.624-2.282,3.742-4.745,3.742a4.994,4.994,0,0,1-4.9-2.716l2.965-1.687a1.874,1.874,0,0,0,1.939,1.343c.821,0,1.231-.252,1.231-.707,0-1.255-5.612-.593-5.612-4.541,0-2.486,2.1-3.741,4.476-3.741a4.991,4.991,0,0,1,4.448,2.44l-2.919,1.574a1.657,1.657,0,0,0-1.529-1.007c-.593,0-.958.224-.958.639C117.637,49.732,123.249,48.865,123.249,53.083Z" transform="translate(10.898 0.976)" fill="rgba(98,93,113,0.4)"/>
    <path id="Path_66" data-name="Path 66" d="M134.564,45.066V56.473h-3.422V55.4a3.9,3.9,0,0,1-3.263,1.392c-2.3,0-4.265-1.643-4.265-4.723v-7h3.422v6.5a1.881,1.881,0,0,0,1.985,2.076c1.254,0,2.126-.73,2.126-2.35V45.066Z" transform="translate(12.09 1.011)" fill="rgba(98,93,113,0.4)"/>
    <path id="Path_67" data-name="Path 67" d="M152.747,49.5v7h-3.422V49.8c0-1.14-.548-1.871-1.643-1.871-1.141,0-1.779.8-1.779,2.145v6.433h-3.423V49.8c0-1.14-.547-1.871-1.643-1.871-1.14,0-1.779.8-1.779,2.145v6.433h-3.422V45.1h3.427v1.045a3.5,3.5,0,0,1,3.057-1.368,3.4,3.4,0,0,1,2.989,1.505,3.759,3.759,0,0,1,3.309-1.505C151.037,44.783,152.747,46.652,152.747,49.5Z" transform="translate(13.52 0.975)" fill="rgba(98,93,113,0.4)"/>
    <circle id="Ellipse_18" data-name="Ellipse 18" cx="2.54" cy="2.54" r="2.54" transform="translate(166.626 40.926)" fill="rgba(98,93,113,0.4)"/>
    <path id="Path_68" data-name="Path 68" d="M54.457,40.377H57.88V57.03H54.457Zm5.361,10.95a6.042,6.042,0,1,1,6.042,6.023,5.979,5.979,0,0,1-6.042-6.023Zm8.67,0a2.624,2.624,0,1,0-2.624,2.692,2.559,2.559,0,0,0,2.628-2.692ZM85.551,45.62V56.458c0,3.832-2.989,5.452-6.022,5.452a5.832,5.832,0,0,1-5.407-2.76l2.919-1.689a2.608,2.608,0,0,0,2.6,1.438,2.274,2.274,0,0,0,2.574-2.44v-1.05a4.053,4.053,0,0,1-3.331,1.483,5.8,5.8,0,0,1,0-11.589,4.053,4.053,0,0,1,3.331,1.483V45.62ZM82.221,51.1a2.764,2.764,0,1,0-2.763,2.651A2.583,2.583,0,0,0,82.221,51.1Zm5.268.224a6.042,6.042,0,1,1,6.042,6.023,5.979,5.979,0,0,1-6.042-6.016Zm8.67,0a2.625,2.625,0,1,0-2.624,2.692,2.559,2.559,0,0,0,2.624-2.684Z" transform="translate(3.863 0.453)" fill="rgba(98,93,113,0.4)"/>
  </g>
</svg>
