<svg xmlns="http://www.w3.org/2000/svg" width="192.877" height="55" viewBox="0 0 192.877 55">
  <g id="logo-17" transform="translate(-27 -32)" opacity="0.9" style="mix-blend-mode: multiply;isolation: isolate">
    <path id="Path_69" data-name="Path 69" d="M54.5,32a27.5,27.5,0,1,0,0,55V73.25a13.75,13.75,0,0,1,0-27.5Z" transform="translate(0)" fill="#9d9db4"/>
    <circle id="Ellipse_19" data-name="Ellipse 19" cx="9.167" cy="9.167" r="9.167" transform="translate(45.333 50.333)" fill="#9d9db4"/>
    <path id="Path_70" data-name="Path 70" d="M27,49.5a27.5,27.5,0,1,0,55,0H68.25a13.75,13.75,0,0,1-27.5,0Z" transform="translate(0 10)" fill="#9d9db4"/>
    <path id="Path_71" data-name="Path 71" d="M57,52.833a9.167,9.167,0,0,0-18.333,0H57Z" transform="translate(6.667 6.667)" fill="#9d9db4"/>
    <path id="Path_72" data-name="Path 72" d="M72.382,42.925H68.966V61.9h3.415Z" transform="translate(23.981 6.243)" fill="#9d9db4"/>
    <path id="Path_73" data-name="Path 73" d="M72.559,53.3a7.048,7.048,0,1,0,14.1,0,7.048,7.048,0,1,0-14.1,0Zm3.416,0c0-2.6,1.518-4.12,3.632-4.12s3.632,1.518,3.632,4.12-1.518,4.12-3.632,4.12S75.974,55.907,75.974,53.3Z" transform="translate(26.034 8.116)" fill="#9d9db4"/>
    <path id="Path_74" data-name="Path 74" d="M93.219,46.582V48.4h-.271A5.026,5.026,0,0,0,88.5,46.2c-3.2,0-6.072,2.711-6.072,6.885S85.3,59.973,88.5,59.973a5.058,5.058,0,0,0,4.391-2.114h.271v1.3c0,2.6-1.518,3.795-3.741,3.795A3.639,3.639,0,0,1,85.6,60.217l-3.063,1.328c.7,2.033,2.765,4.283,6.939,4.283,4.283,0,7.1-2.25,7.1-6.587V46.582ZM89.533,57.045a3.635,3.635,0,0,1-3.687-3.958,3.7,3.7,0,1,1,7.373,0A3.635,3.635,0,0,1,89.533,57.045Z" transform="translate(31.675 8.116)" fill="#9d9db4"/>
    <path id="Path_75" data-name="Path 75" d="M92.841,53.3a7.048,7.048,0,1,0,14.1,0,7.048,7.048,0,1,0-14.1,0Zm3.415,0c0-2.6,1.518-4.12,3.632-4.12s3.632,1.518,3.632,4.12-1.518,4.12-3.632,4.12S96.257,55.907,96.257,53.3Z" transform="translate(37.623 8.116)" fill="#9d9db4"/>
    <path id="Path_76" data-name="Path 76" d="M103.517,44.808a2.414,2.414,0,1,0,2.414-2.331A2.3,2.3,0,0,0,103.517,44.808Zm4.12,3.9h-3.415V62.156h3.415Z" transform="translate(43.724 5.987)" fill="#9d9db4"/>
    <path id="Path_77" data-name="Path 77" d="M108.076,65.449h3.416V58.292h.27a5,5,0,0,0,4.392,2.114c3.2,0,6.072-2.711,6.072-7.1s-2.874-7.1-6.072-7.1a5.024,5.024,0,0,0-4.446,2.2h-.272V46.582h-3.361Zm7.048-7.969c-2.114,0-3.687-1.518-3.687-4.175s1.573-4.175,3.687-4.175,3.687,1.518,3.687,4.175S117.239,57.479,115.124,57.479Z" transform="translate(46.329 8.116)" fill="#9d9db4"/>
    <path id="Path_78" data-name="Path 78" d="M118.527,50.35c0,2.657,2.222,3.632,5.041,4.174l.706.135c1.68.325,2.439.732,2.439,1.6s-.759,1.545-2.33,1.545a2.906,2.906,0,0,1-3.2-2.6l-3.144.813c.462,2.819,2.819,4.391,6.344,4.391,3.415,0,5.638-1.6,5.638-4.418s-2.277-3.578-5.313-4.174L124,51.678c-1.41-.271-2.169-.651-2.169-1.545,0-.813.706-1.328,2.007-1.328a2.325,2.325,0,0,1,2.547,2.006l3.091-.949c-.651-2.169-2.629-3.66-5.638-3.66C120.64,46.2,118.527,47.693,118.527,50.35Z" transform="translate(52.022 8.116)" fill="#9d9db4"/>
    <path id="Path_79" data-name="Path 79" d="M140.157,59.889V46.444h-3.415v6.939c0,2.494-1.219,3.958-3.308,3.958-1.843,0-2.873-1-2.873-3.036V46.444h-3.416v8.024c0,3.334,2.088,5.638,5.233,5.638,2.466,0,3.6-1.084,4.147-2.223h.27v2.006Z" transform="translate(57.226 8.254)" fill="#9d9db4"/>
    <path id="Path_80" data-name="Path 80" d="M137.354,46.523V59.968h3.416V51.944c0-1.843.867-2.873,2.439-2.873a1.986,1.986,0,0,1,2.169,2.223v8.674h3.416V51.944c0-1.843.867-2.873,2.439-2.873a1.986,1.986,0,0,1,2.169,2.223v8.674h3.416V51.131c0-3.253-2.007-4.825-4.5-4.825a3.958,3.958,0,0,0-3.848,2.114H148.2a3.717,3.717,0,0,0-3.687-2.114,3.6,3.6,0,0,0-3.523,1.9h-.272V46.523Z" transform="translate(63.059 8.175)" fill="#9d9db4"/>
  </g>
</svg>
