<svg xmlns="http://www.w3.org/2000/svg" width="115.634" height="55" viewBox="0 0 115.634 55">
  <g id="logo-4" transform="translate(-38.79 -26.18)" opacity="0.9" style="mix-blend-mode: multiply;isolation: isolate">
    <path id="Path_147" data-name="Path 147" d="M38.79,54.79h3.462V71.768H38.79Z" transform="translate(0 4.41)" fill="#9d9db4"/>
    <path id="Path_148" data-name="Path 148" d="M43.53,65.285a6.163,6.163,0,1,1,6.163,6.152,6.094,6.094,0,0,1-6.163-6.152Zm8.841,0a2.678,2.678,0,1,0-2.678,2.747,2.608,2.608,0,0,0,2.678-2.747Z" transform="translate(0.731 5.076)" fill="#9d9db4"/>
    <path id="Path_149" data-name="Path 149" d="M67.967,59.464V70.52c0,3.913-3.058,5.563-6.152,5.563a5.944,5.944,0,0,1-5.505-2.816l2.978-1.72a2.655,2.655,0,0,0,2.6,1.466,2.308,2.308,0,0,0,2.678-2.493V69.447a4.109,4.109,0,0,1-3.393,1.512,5.909,5.909,0,1,1,0-11.818,4.143,4.143,0,0,1,3.393,1.512V59.5Zm-3.4,5.586a2.816,2.816,0,1,0-2.816,2.7,2.631,2.631,0,0,0,2.816-2.7Z" transform="translate(2.539 5.08)" fill="#9d9db4"/>
    <path id="Path_150" data-name="Path 150" d="M68,65.285a6.163,6.163,0,1,1,6.163,6.152A6.094,6.094,0,0,1,68,65.285Zm8.841,0a2.678,2.678,0,1,0-2.678,2.747,2.608,2.608,0,0,0,2.655-2.747Z" transform="translate(4.503 5.076)" fill="#9d9db4"/>
    <path id="Path_151" data-name="Path 151" d="M80.07,57a2.1,2.1,0,1,1,2.1,2.1,2.1,2.1,0,0,1-2.1-2.1Zm.358,3.116H83.89V71.751H80.428Z" transform="translate(6.363 4.427)" fill="#9d9db4"/>
    <path id="Path_152" data-name="Path 152" d="M98.126,65.281a5.84,5.84,0,0,1-5.551,6.152,4.42,4.42,0,0,1-3.462-1.42v5.771H85.65V59.464h3.462v1.1a4.42,4.42,0,0,1,3.462-1.42,5.84,5.84,0,0,1,5.551,6.14Zm-3.462,0a2.77,2.77,0,1,0-2.839,2.839,2.655,2.655,0,0,0,2.816-2.839Z" transform="translate(7.223 5.08)" fill="#9d9db4"/>
    <path id="Path_153" data-name="Path 153" d="M107.115,67.61c0,2.678-2.308,3.82-4.847,3.82a5.1,5.1,0,0,1-5-2.77l3.024-1.72a1.916,1.916,0,0,0,1.974,1.373c.843,0,1.258-.265,1.258-.727,0-1.281-5.771-.6-5.771-4.617,0-2.539,2.147-3.82,4.617-3.82a5.113,5.113,0,0,1,4.547,2.493l-3.035,1.593a1.72,1.72,0,0,0-1.57-1.027c-.6,0-.969.231-.969.658C101.39,64.194,107.115,63.305,107.115,67.61Z" transform="translate(9.015 5.082)" fill="#9d9db4"/>
    <path id="Path_154" data-name="Path 154" d="M118.328,59.42V71.054h-3.462V69.969a3.982,3.982,0,0,1-3.324,1.42c-2.308,0-4.351-1.674-4.351-4.824V59.42h3.462v6.636a1.916,1.916,0,0,0,2.089,2.112c1.27,0,2.158-.739,2.158-2.389V59.42Z" transform="translate(10.544 5.124)" fill="#9d9db4"/>
    <path id="Path_155" data-name="Path 155" d="M136.5,63.966V71.1h-3.462V64.266c0-1.154-.566-1.916-1.674-1.916s-1.824.819-1.824,2.193V71.1h-3.462V64.266c0-1.154-.554-1.916-1.674-1.916s-1.812.819-1.812,2.193V71.1H119.13V59.465h3.462v1.073a3.578,3.578,0,0,1,3.116-1.4,3.462,3.462,0,0,1,3.047,1.535,3.832,3.832,0,0,1,3.37-1.535C134.757,59.142,136.5,61.057,136.5,63.966Z" transform="translate(12.384 5.079)" fill="#9d9db4"/>
    <circle id="Ellipse_20" data-name="Ellipse 20" cx="2.585" cy="2.585" r="2.585" transform="translate(149.253 59.304)" fill="#9d9db4"/>
    <circle id="Ellipse_21" data-name="Ellipse 21" cx="12.107" cy="12.107" r="12.107" transform="translate(65.866 26.18)" fill="#9d9db4"/>
    <circle id="Ellipse_22" data-name="Ellipse 22" cx="12.107" cy="12.107" r="12.107" transform="translate(92.931 26.18)" fill="#9d9db4"/>
    <rect id="Rectangle_44" data-name="Rectangle 44" width="24.202" height="24.202" transform="translate(38.813 26.18)" fill="#9d9db4"/>
  </g>
</svg>
