<svg xmlns="http://www.w3.org/2000/svg" width="210.995" height="55" viewBox="0 0 210.995 55">
  <g id="logo-5" transform="translate(-25.75 -33.56)" opacity="0.9" style="mix-blend-mode: multiply;isolation: isolate">
    <path id="Path_156" data-name="Path 156" d="M46.23,41.477h3.341V64.734H59.6v3.341H46.23Zm23.774,0A10.024,10.024,0,1,1,59.98,51.5,10.024,10.024,0,0,1,70,41.477Zm0,16.707a6.666,6.666,0,1,1,0-.033Zm-6.683,6.583H76.687v3.341H63.321Zm42.77,3.341H102.75V65.719A12.848,12.848,0,0,1,95.4,68.042a13.366,13.366,0,1,1,10.024-22.1l-2.456,2.189a10.024,10.024,0,1,0-7.451,16.707,9.64,9.64,0,0,0,7.318-3.341H93.812V58.151h12.313Zm12.3-26.564a5.842,5.842,0,1,1,.033-.067Zm0,16.707a5.257,5.257,0,1,1,.033-.1Zm-6.683,6.583h13.366v3.341H111.705Zm20.266-23.357h3.341V68.042h-3.341Zm7.969,0h3.341a2.457,2.457,0,0,1,.518,0,10.024,10.024,0,1,1,0,19.932h-.518v6.683H139.94Zm3.341,3.341V58.034h.518a6.683,6.683,0,1,0,0-13.249,2.457,2.457,0,0,0-.535.117Zm24.075-1.42-2.473,1.955a3.241,3.241,0,0,0-5.563,1.888v.267c0,1.47,1.019,2.456,3.007,2.59,7.652.468,11.16,4.06,11.16,8.8v.3A9.857,9.857,0,0,1,156.5,64.917l2.556-1.971a6.015,6.015,0,0,0,4.678,1.9,6.248,6.248,0,0,0,6.549-5.647V58.97c0-4.461-4.377-5.279-8.17-5.647-3.509-.334-6.031-2.523-6.031-5.68v-.134a6.432,6.432,0,0,1,6.566-5.948,6.248,6.248,0,0,1,4.695,1.921ZM186.57,64.65c4.16,0,7.451-4.494,7.451-10.024V41.26h3.341V54.626c0,7.351-4.812,13.282-10.726,13.282s-10.726-5.931-10.726-13.282V41.26h3.341V54.626c-.134,5.614,3.158,10.108,7.3,10.108Zm36.438,3.341h-3.341V51.451l-7.7,10.024-7.7-10.024v16.59h-3.341V41.477L211.948,56l11.027-14.519Z" transform="translate(13.736 5.165)" fill="#9d9db4"/>
    <path id="Path_157" data-name="Path 157" d="M43.927,42.649a9.089,9.089,0,0,0-18.177,0V70.132l7.485,5.363V88.56h3.208V75.495l7.485-5.363ZM40.72,58.019,36.443,62.3v-4.01L40.72,54.01Zm-11.7-4.01L33.3,58.287V62.3l-4.277-4.277Zm11.7-4.544-5.881,5.881-5.881-6.015v-4.01L34.839,51.2l5.881-5.881Zm-5.881-12.7a5.914,5.914,0,0,1,5.68,4.361l-5.68,5.664-5.68-5.664a5.914,5.914,0,0,1,5.68-4.427ZM28.958,68.511V62.5l4.277,4.277v4.778Zm7.485,3.057V66.774L40.72,62.5v6Z" transform="translate(0 0)" fill="#9d9db4"/>
  </g>
</svg>
