<svg xmlns="http://www.w3.org/2000/svg" width="197.906" height="55" viewBox="0 0 197.906 55">
  <g id="logo-25" transform="translate(-18.533 -30.057)" opacity="0.9" style="mix-blend-mode: multiply;isolation: isolate">
    <path id="Path_98" data-name="Path 98" d="M91.6,34.8a4.9,4.9,0,0,1,6.93,6.93L86.863,53.4a11.467,11.467,0,0,1,1.092-14.951Z" transform="translate(25.034 1.254)" fill="#9d9db4" fill-rule="evenodd"/>
    <path id="Path_99" data-name="Path 99" d="M106.881,55.421a4.9,4.9,0,0,1-6.929,6.93L88.285,50.684a11.467,11.467,0,0,1,14.951,1.092Z" transform="translate(26.431 6.958)" fill="#9d9db4" fill-rule="evenodd"/>
    <path id="Path_100" data-name="Path 100" d="M84.981,70.7a4.9,4.9,0,0,1-6.93-6.93L89.718,52.106a11.466,11.466,0,0,1-1.092,14.951Z" transform="translate(22.009 8.355)" fill="#9d9db4" fill-rule="evenodd"/>
    <path id="Path_101" data-name="Path 101" d="M70.981,48.8a4.9,4.9,0,0,1,6.93-6.93L89.578,53.539a11.467,11.467,0,0,1-14.951-1.092Z" transform="translate(19.33 3.933)" fill="#9d9db4" fill-rule="evenodd"/>
    <path id="Path_102" data-name="Path 102" d="M87.785,67.608a15.412,15.412,0,0,0,3.934-11.1l5.6,5.6.042.042v4a4.9,4.9,0,0,1-9.579,1.459Z" transform="translate(26.242 10.021)" fill="#9d9db4" fill-rule="evenodd"/>
    <path id="Path_103" data-name="Path 103" d="M72.568,51.606a15.411,15.411,0,0,0,11.1,3.934l-5.6,5.6-.042.042h-4a4.9,4.9,0,0,1-1.459-9.579Z" transform="translate(19.172 8.166)" fill="#9d9db4" fill-rule="evenodd"/>
    <path id="Path_104" data-name="Path 104" d="M103.786,51.027a15.41,15.41,0,0,0-11.1-3.934l5.6-5.6.042-.042h4a4.9,4.9,0,0,1,1.459,9.58Z" transform="translate(28.098 4.316)" fill="#9d9db4" fill-rule="evenodd"/>
    <path id="Path_105" data-name="Path 105" d="M87.206,36.389a15.411,15.411,0,0,0-3.934,11.1l-5.6-5.6-.042-.042v-4a4.9,4.9,0,0,1,9.579-1.459Z" transform="translate(22.392 1.096)" fill="#9d9db4" fill-rule="evenodd"/>
    <path id="Path_106" data-name="Path 106" d="M86.842,30.057a8.887,8.887,0,0,0-8.887,8.887v1.728a8.888,8.888,0,0,0-8.539,14.882l1.222,1.222a8.888,8.888,0,0,0,4.485,16.561h1.728a8.888,8.888,0,0,0,14.882,8.539l3.645-3.645a15.412,15.412,0,0,0,4.506-11.707l5.6,5.6a8.887,8.887,0,0,0,12.569-12.568l-1.222-1.222a8.888,8.888,0,0,0-4.486-16.561H110.62a8.888,8.888,0,0,0-14.882-8.539l-3.645,3.645a15.411,15.411,0,0,0-4.506,11.707l-5.6-5.6-.042-.042v-4a4.9,4.9,0,0,1,9.579-1.459q.276-.307.571-.6l2.423-2.423A8.883,8.883,0,0,0,86.842,30.057Zm21.506,15.706-.042.042-5.6,5.6a15.409,15.409,0,0,1,11.1,3.935,4.9,4.9,0,0,0-1.459-9.579ZM79.123,69.351l.042-.042,5.6-5.6a15.411,15.411,0,0,1-11.1-3.934,4.9,4.9,0,0,0,1.459,9.579Zm-5.612-9.719q-.228-.211-.45-.432h0Q73.283,59.421,73.511,59.632ZM100.63,85.057a8.883,8.883,0,0,1-7.674-4.4l2.423-2.423q.3-.3.572-.6a4.9,4.9,0,0,0,9.58-1.459v-4a8.845,8.845,0,0,0,3.987,2.272V76.17A8.887,8.887,0,0,1,100.63,85.057Zm4.858-49a4.9,4.9,0,0,0-6.93,0L94.912,39.7a11.467,11.467,0,0,0-1.092,14.951l11.667-11.667A4.9,4.9,0,0,0,105.488,36.056Zm9.749,33.252a4.9,4.9,0,0,0,0-6.93l-3.645-3.645A11.467,11.467,0,0,0,96.64,57.642l11.667,11.667A4.9,4.9,0,0,0,115.236,69.309ZM88.914,79.058a4.9,4.9,0,0,1-6.93-6.93L93.651,60.461a11.467,11.467,0,0,1-1.092,14.951ZM72.235,45.805a4.9,4.9,0,0,0,0,6.93l3.645,3.645a11.467,11.467,0,0,0,14.951,1.092L79.165,45.805A4.9,4.9,0,0,0,72.235,45.805Z" transform="translate(18.076)" fill="#fff" fill-rule="evenodd"/>
    <path id="Path_107" data-name="Path 107" d="M18.533,43.09h4.358V56.633h7.485V60.3H18.533Z" transform="translate(0 4.939)" fill="#9d9db4"/>
    <path id="Path_108" data-name="Path 108" d="M34.863,59.29a8.821,8.821,0,0,1-3.841-.788,6.278,6.278,0,0,1-2.561-2.216,6.082,6.082,0,0,1-.886-3.275,5.957,5.957,0,0,1,.886-3.25,6.045,6.045,0,0,1,2.561-2.216,8.592,8.592,0,0,1,3.841-.813,8.592,8.592,0,0,1,3.841.813,5.9,5.9,0,0,1,3.447,5.466,5.957,5.957,0,0,1-.911,3.275A6.1,6.1,0,0,1,38.7,58.5,8.821,8.821,0,0,1,34.863,59.29Zm0-3.373a2.8,2.8,0,0,0,2.068-.763,2.9,2.9,0,0,0,.788-2.142,2.81,2.81,0,0,0-.788-2.117,2.746,2.746,0,0,0-2.068-.788,2.828,2.828,0,0,0-2.093.788,2.861,2.861,0,0,0-.763,2.117,2.948,2.948,0,0,0,.763,2.142A2.88,2.88,0,0,0,34.863,55.917Z" transform="translate(3.426 6.319)" fill="#9d9db4"/>
    <path id="Path_109" data-name="Path 109" d="M45.951,64.584a13.205,13.205,0,0,1-2.388-.222,9.8,9.8,0,0,1-2.044-.591v-3a11.116,11.116,0,0,0,4.432.837,3.714,3.714,0,0,0,2.585-.739,2.78,2.78,0,0,0,.813-2.167v-.714a5.094,5.094,0,0,1-1.773.96,6.963,6.963,0,0,1-2.216.345,6.72,6.72,0,0,1-3.3-.788,5.7,5.7,0,0,1-2.241-2.216,7.251,7.251,0,0,1,0-6.574,5.377,5.377,0,0,1,2.216-2.192,6.667,6.667,0,0,1,3.275-.788A5.868,5.868,0,0,1,49.5,48.284V47.1h4.186V58.109a6.083,6.083,0,0,1-1.9,4.777Q49.915,64.584,45.951,64.584Zm.492-8.643a3.2,3.2,0,0,0,1.8-.517,2.767,2.767,0,0,0,1.108-1.379V51.977a2.774,2.774,0,0,0-1.133-1.354,3.161,3.161,0,0,0-1.773-.517,2.946,2.946,0,0,0-2.142.788,2.732,2.732,0,0,0-.813,2.093,2.758,2.758,0,0,0,2.955,2.955Z" transform="translate(7.768 6.319)" fill="#9d9db4"/>
    <path id="Path_110" data-name="Path 110" d="M57.742,59.29A8.821,8.821,0,0,1,53.9,58.5a6.277,6.277,0,0,1-2.561-2.216,6.081,6.081,0,0,1-.887-3.275,5.956,5.956,0,0,1,.887-3.25A6.045,6.045,0,0,1,53.9,47.545a9.485,9.485,0,0,1,7.682,0,5.9,5.9,0,0,1,3.447,5.466,5.958,5.958,0,0,1-.911,3.275A6.1,6.1,0,0,1,61.583,58.5,8.82,8.82,0,0,1,57.742,59.29Zm0-3.373a2.8,2.8,0,0,0,2.068-.763,2.9,2.9,0,0,0,.788-2.142,2.811,2.811,0,0,0-.788-2.117,2.746,2.746,0,0,0-2.068-.788,2.829,2.829,0,0,0-2.093.788,2.861,2.861,0,0,0-.763,2.117,2.948,2.948,0,0,0,.763,2.142A2.88,2.88,0,0,0,57.742,55.917Z" transform="translate(12.096 6.319)" fill="#9d9db4"/>
    <path id="Path_111" data-name="Path 111" d="M111.432,43.09h4.359V60.3h-4.359Z" transform="translate(35.202 4.939)" fill="#9d9db4"/>
    <path id="Path_112" data-name="Path 112" d="M116.193,47.1h4.186v1.182a5.865,5.865,0,0,1,4.185-1.551,6.666,6.666,0,0,1,3.275.788,5.373,5.373,0,0,1,2.216,2.192,6.578,6.578,0,0,1,.789,3.275,6.808,6.808,0,0,1-.789,3.3,5.534,5.534,0,0,1-2.216,2.216,6.577,6.577,0,0,1-3.275.788,6.962,6.962,0,0,1-2.264-.369,5.089,5.089,0,0,1-1.773-.96v6.353h-4.334Zm7.239,8.815a2.942,2.942,0,0,0,2.141-.788,2.845,2.845,0,0,0,.814-2.142,2.764,2.764,0,0,0-.814-2.118,2.943,2.943,0,0,0-2.141-.788,3.162,3.162,0,0,0-1.773.517,2.775,2.775,0,0,0-1.132,1.354v2.093a2.907,2.907,0,0,0,1.132,1.379A3.278,3.278,0,0,0,123.432,55.917Z" transform="translate(37.006 6.319)" fill="#9d9db4"/>
    <path id="Path_113" data-name="Path 113" d="M133.039,59.29a15.917,15.917,0,0,1-2.979-.3,7.746,7.746,0,0,1-2.463-.788V55.031a10.252,10.252,0,0,0,2.413.985,10.5,10.5,0,0,0,2.61.369,4.6,4.6,0,0,0,1.255-.123.488.488,0,0,0,.394-.492A.53.53,0,0,0,134,55.3a2.908,2.908,0,0,0-.936-.394q-.664-.222-1.551-.468a12.55,12.55,0,0,1-2.364-.911,3.211,3.211,0,0,1-1.281-1.182,3.515,3.515,0,0,1-.418-1.8,3.134,3.134,0,0,1,1.5-2.856,7.769,7.769,0,0,1,4.162-.96A14.166,14.166,0,0,1,135.8,47a6.483,6.483,0,0,1,2.143.714v3.127a6.533,6.533,0,0,0-1.971-.813,8.85,8.85,0,0,0-2.266-.32,3.913,3.913,0,0,0-1.3.172q-.467.148-.467.542,0,.369.467.566a12.78,12.78,0,0,0,1.674.492q.788.2.665.172a9.711,9.711,0,0,1,2.438.936,2.982,2.982,0,0,1,1.207,1.231,3.732,3.732,0,0,1,.37,1.773,3.128,3.128,0,0,1-1.477,2.708A7.554,7.554,0,0,1,133.039,59.29Z" transform="translate(41.272 6.319)" fill="#9d9db4"/>
    <path id="Path_114" data-name="Path 114" d="M141.678,59.189a4.71,4.71,0,0,1-3.668-1.354,5.169,5.169,0,0,1-1.207-3.57V47h4.334v6.771q0,2.044,1.846,2.044a3.019,3.019,0,0,0,1.526-.394,3.07,3.07,0,0,0,1.132-1.157V47h4.334V58.819h-4.185v-1.28a4.938,4.938,0,0,1-1.848,1.231A6.224,6.224,0,0,1,141.678,59.189Z" transform="translate(44.816 6.42)" fill="#9d9db4"/>
    <path id="Path_115" data-name="Path 115" d="M147.965,47.1h4.014v1.28a5.111,5.111,0,0,1,1.7-1.207,5.376,5.376,0,0,1,4.162-.049,3.118,3.118,0,0,1,1.3,1.182,5.216,5.216,0,0,1,1.8-1.157,5.784,5.784,0,0,1,2.141-.419,4.065,4.065,0,0,1,3.325,1.207,5.221,5.221,0,0,1,.985,3.422v7.559h-4.137V51.977a2.219,2.219,0,0,0-.37-1.428,1.518,1.518,0,0,0-1.23-.443,2.275,2.275,0,0,0-1.8.788q.025.418.025,1.28v6.747h-4.137V51.8a2.082,2.082,0,0,0-.32-1.305,1.39,1.39,0,0,0-1.132-.394,2.594,2.594,0,0,0-2.168,1.4v7.411h-4.162Z" transform="translate(49.046 6.319)" fill="#9d9db4"/>
  </g>
</svg>
