<svg xmlns="http://www.w3.org/2000/svg" width="133.212" height="30" viewBox="0 0 133.212 30">
  <path id="logo-11" d="M31.941,67.175h30v-30h-30ZM56.167,49.288H49.828V42.949h6.339ZM37.714,42.949h6.343V55.062h12.11V61.4H37.714Zm43.763-5.774a15,15,0,1,0,15,15A15,15,0,0,0,81.477,37.175Zm0,24.226A9.226,9.226,0,1,1,90.7,52.175,9.226,9.226,0,0,1,81.477,61.4Zm68.677-24.226a15,15,0,1,0,15,15A15,15,0,0,0,150.154,37.175Zm0,24.226a9.226,9.226,0,1,1,9.225-9.225,9.226,9.226,0,0,1-9.225,9.225ZM115.815,37.175a15,15,0,1,0,15,15,15,15,0,0,0-15-15Zm0,24.226a9.226,9.226,0,1,1,8.758-12.112h-8.758v5.773h8.758A9.24,9.24,0,0,1,115.815,61.4Z" transform="translate(-31.941 -37.175)" fill="rgba(98,93,113,0.4)"/>
</svg>
