<svg xmlns="http://www.w3.org/2000/svg" width="280.523" height="40" viewBox="0 0 280.523 40">
  <g id="Group_17" data-name="Group 17" transform="translate(-80 -39)">
    <g id="Group_2" data-name="Group 2" transform="translate(80 39)">
      <path id="Path_9" data-name="Path 9" d="M371.813,480.347l-7.721,10.515-14.569-27.485-1.244,2.347-13.325,25.138-7.721-10.515-14.656,23.031h3.338L327.4,485.331l6.091,8.295-5.169,9.752h15.823l-7.338-9.994,6.385-12.046,2.031,1.794h0l2.042,1.8,1.328,1.173h0l.932.824,6.333-5.594,6.385,12.046-7.338,9.994h15.823l-5.169-9.752,6.09-8.294,11.484,18.046h3.338Zm-33.231,20.215H333l2.34-4.415Zm10.941-17.388-4.976-4.4,4.621-8.717h0l.355-.671,4.976,9.387Zm16.523,17.388h-5.582l3.241-4.415Z" transform="translate(-312.577 -463.378)" fill="#ff4186"/>
    </g>
    <g id="Group_3" data-name="Group 3" transform="translate(161.075 59.773)">
      <path id="Path_10" data-name="Path 10" d="M510.827,517.662a5.859,5.859,0,0,1-5.986,5.959h-4.264v6.621h-2.463V511.7h6.727A5.843,5.843,0,0,1,510.827,517.662Zm-2.437,0a3.494,3.494,0,0,0-3.549-3.654h-4.264v7.309h4.264A3.509,3.509,0,0,0,508.391,517.662Z" transform="translate(-498.115 -511.359)" fill="#ff4186"/>
      <path id="Path_11" data-name="Path 11" d="M548.944,527.911v2.331H537.873V511.7h10.938v2.331h-8.475v5.694h7.813v2.3h-7.813v5.879Z" transform="translate(-520.5 -511.359)" fill="#ff4186"/>
      <path id="Path_12" data-name="Path 12" d="M583.075,526.084h-8.342l-1.51,4.158H570.6l6.912-18.539h2.781l6.912,18.539h-2.622Zm-.847-2.3-3.337-9.137-3.31,9.137Z" transform="translate(-538.927 -511.359)" fill="#ff4186"/>
      <path id="Path_13" data-name="Path 13" d="M628.093,530.242l-8-8.9v8.9h-2.463V511.7H620.1v8.369l7.733-8.369h3.019l-8.184,9.005,8.448,9.534Z" transform="translate(-565.406 -511.359)" fill="#ff4186"/>
      <path id="Path_14" data-name="Path 14" d="M662.456,522.747v7.495h-2.463V522.72L653.451,511.7h2.754l5.032,8.687,5.032-8.687h2.754Z" transform="translate(-585.573 -511.359)" fill="#ff4186"/>
      <path id="Path_15" data-name="Path 15" d="M733.293,520.973c0,5.138-3.681,9.269-8.792,9.269h-7.23V511.7h7.23C729.612,511.7,733.293,515.835,733.293,520.973Zm-2.357,0c0-3.92-2.622-6.939-6.436-6.939h-4.767v13.877H724.5C728.315,527.911,730.936,524.892,730.936,520.973Z" transform="translate(-621.506 -511.359)" fill="#fff"/>
      <path id="Path_16" data-name="Path 16" d="M767.249,511.7v18.539h-2.463V511.7Z" transform="translate(-648.258 -511.359)" fill="#fff"/>
      <path id="Path_17" data-name="Path 17" d="M800.128,521.721c0,4.714-3.5,8.422-9.084,8.422a9.615,9.615,0,1,1-.053-19.227,9.25,9.25,0,0,1,8.025,4.475l-2.119,1.245a6.642,6.642,0,0,0-5.932-3.337,7.218,7.218,0,1,0,.106,14.434c3.841,0,6.118-2.118,6.595-4.9h-6.806v-2.225h9.27Z" transform="translate(-657.54 -510.916)" fill="#fff"/>
      <path id="Path_18" data-name="Path 18" d="M837.735,511.7v18.539h-2.463V511.7Z" transform="translate(-687.944 -511.359)" fill="#fff"/>
      <path id="Path_19" data-name="Path 19" d="M863.919,514.034h-5.482v16.208H856V514.034h-5.456V511.7h13.374Z" transform="translate(-696.543 -511.359)" fill="#fff"/>
      <path id="Path_20" data-name="Path 20" d="M896.05,526.084h-8.343l-1.509,4.158h-2.622l6.913-18.539h2.78l6.913,18.539H897.56Zm-.847-2.3-3.337-9.137-3.31,9.137Z" transform="translate(-715.14 -511.359)" fill="#fff"/>
      <path id="Path_21" data-name="Path 21" d="M941.068,527.911v2.331H930.607V511.7h2.463v16.208Z" transform="translate(-741.62 -511.359)" fill="#fff"/>
    </g>
  </g>
</svg>
